<svg xmlns="http://www.w3.org/2000/svg" width="4649.333" height="1928" version="1" viewBox="0 0 3487 1446">
  <path d="M1990.7 507.9c-2 2.3-3.7 4.7-3.7 5.4 0 .6-.7 6.1-1.5 12.2-1.1 7.7-1.5 19.7-1.5 39.5.1 33.4.2 35.5 2.8 56.5 2.9 22.7 4.4 35.5 4.7 39 .4 3.6 3.1 21 4.5 28 .5 2.7 1.4 8.8 2 13.5 1 8 1.7 12.5 4.1 24.5.5 2.7 1.3 7.9 1.8 11.5.4 3.6 1.2 7.4 1.8 8.5.6 1.1 1.3 3.8 1.7 6 .9 6 5.3 29.3 6.5 34.8 1.1 4.8 3.3 20 3.6 24.8.1 1.4.4 3 .8 3.5.7 1.3 6.2 30.7 7.7 41.4 3.2 24 5.3 37.1 6.6 42.2.8 3.2 1.4 8.6 1.4 12 0 3.5.7 9.6 1.5 13.6.9 4.1 1.8 9.7 2.1 12.5.2 2.9 1.2 10.6 2.2 17.3 1.1 7.5 1.5 13.2 1 15.1-.5 1.8-.4 4.2.1 5.6 1.1 2.8 6.9 7.8 9.8 8.4 2.9.7 8.6.3 9.8-.6.5-.5 3.1-1.2 5.7-1.5 4.8-.7 15.2-4.8 16.2-6.4.3-.6 3.3-1.3 6.6-1.7 3.3-.4 6.3-1.1 6.6-1.6.3-.5 1.3-.9 2.3-.9.9 0 3.6-.9 5.9-2 2.2-1.1 5-2 6.1-2 1 0 2.1-.3 2.3-.8.3-.8 14.9-5.2 17.3-5.2.8 0 1.5-.5 1.5-1 0-.6 1.1-1 2.5-1s2.5-.4 2.5-.9 2-1.2 4.4-1.5c2.6-.4 4.7-1.3 5-2.3.4-.8 1.3-1.3 2.1-.9.9.3 3.2-.1 5.3-.8 2-.8 4.6-1.7 5.7-2.1 1.1-.4 4-.9 6.5-1.2 2.5-.2 6.7-1 9.4-1.8s5.2-1.2 5.6-1c.5.3 2.1 0 3.7-.6 1.5-.6 6.2-1.3 10.3-1.5 6.4-.4 8.5-.1 13.9 2 6.8 2.7 9.1 2.3 9.1-1.6 0-1 .7-2.1 1.5-2.4 1.9-.8 2-4.8.1-6.6-.7-.8-1.6-3.6-2-6.3-.5-2.8-1.3-5.6-1.8-6.3-1.2-1.4-4.8-1.6-4.8-.2 0 .5-.6.7-1.2.5-.7-.3-2.4 1.1-3.7 3-2.3 3.4-2.6 3.5-8.7 3.5-6.5 0-25.8 2.8-36.9 5.4-5.2 1.2-16.3 4.8-28.5 9.1-1.9.7-6.9 2.3-11 3.5-4.1 1.3-7.9 2.7-8.5 3-.5.4-4.9 1.9-9.7 3.4-4.9 1.5-8.8 3.1-8.8 3.7 0 .5-1.4.9-3.1.9-2.7 0-10.6 2.6-19.4 6.5-3.6 1.6-10.4 3.5-12.5 3.5-2.4 0-4.8-5-4.7-9.7 0-2.4-.5-4.9-1.1-5.6-.7-.8-1.4-6.3-1.8-12.3-.3-6-1-11.9-1.5-13.2-.5-1.3-.7-2.7-.4-3.2.5-.7-4.4-33.6-6.1-41-.7-3.2-2.3-13.3-2.9-18.5-.9-8.6-1.2-10.3-1.9-11.3-.4-.7-.9-3.3-1.2-5.9-.2-2.7-.6-6.8-.8-9.3-.5-4.5-4.4-25.2-5.4-28-.3-.8-.6-3.2-.7-5.2-.2-2-.7-4.3-1.2-5-.4-.7-.9-2.7-1-4.3-.5-7.2-2.5-17.9-3.9-20.6-.8-1.6-1.2-4.1-.9-5.6.2-1.5 0-4.6-.7-6.8-2.1-7.7-3.5-16.6-2.6-17.1.4-.3.2-1.5-.6-2.6s-1.2-2.6-.9-3.4c.2-.7-.2-2.3-1.1-3.5-.9-1.3-1.3-3.3-.9-4.9.3-1.5 0-3.1-.6-3.4-.6-.4-1.1-2-1.1-3.6s-.4-3.2-1-3.5c-.5-.3-1-3-1-5.8 0-2.9-.4-6.8-1-8.7-.9-3.2-3.7-20.1-4.6-28-.3-1.9-.9-6.9-1.5-11-1.3-8.4-1.2-8-3-24.5-.7-6.6-1.3-14.3-1.3-17-.1-2.8-.4-5.5-.8-6.1-.4-.6-1-4.9-1.3-9.5-.4-4.6-.8-10-1.1-11.9-.4-3.5-1.6-24.2-1.5-27 0-.8.2-9.4.3-19.1.3-16.4.5-17.9 2.8-22.2 1.4-2.7 3.8-5.4 5.7-6.4 5.8-3.1 5.1-9.3-1.9-16-5.3-5.1-7.8-5.2-12.1-.4zM1320.9 610.5c-1.9 1.4-4.7 4.2-6.2 6.3-1.5 2-3.8 3.9-5.1 4.2l-2.3.5 1.8 5.5c1.4 4.1 2 9.1 2.3 19.5.3 15.7 2.1 22.5 7.5 29.4 7.3 9.1 16.5 11.4 26.7 6.6 2.9-1.4 5.8-2.5 6.4-2.5 1.4 0 4.9-4 5-5.8 0-.6.6-1.2 1.3-1.2 2 0 3.9-4.6 4.7-11 .7-5.9-.9-10.2-6.5-17.6-1.4-1.8-2.5-3.6-2.5-4.1 0-.9-11.2-8.6-17.3-11.9-6.6-3.5-5.8-5.1 2.3-4.4 3 .2 10.6 3.6 11.5 5 .9 1.4 4.1 1.2 5.3-.3 1.5-1.8 0-4.6-5.7-10.6-7-7.3-12.4-10.1-19.9-10.1-4.6 0-6.5.5-9.3 2.5zm11.8 30.6c2.1 1.2 4.5 2.7 5.4 3.5.8.8 2 1.4 2.6 1.4 1.5 0 5 4.2 6 7.5.8 2.6.5 3.6-2.5 7.8-4.1 5.7-5.8 6.7-11.1 6.7-3.6 0-4.1-.3-4.6-2.8-.3-1.5-1-4.3-1.5-6.2-2.1-8.3-2.6-11.8-2.2-15.8.5-5 2-5.4 7.9-2.1zM250.3 610.7c-1.7.3-2.1 1-1.8 3.1.1 1.5-.1 3.2-.6 3.8-1.2 1.5.2 5.2 4.1 10.5 1.6 2.3 3 4.8 3 5.4 0 .7 2 3.7 4.4 6.6 4.5 5.5 7.8 10.6 9.6 14.8.6 1.4 2 3.1 3 3.8 1.1.8 2 2.2 2 3.2 0 .9 1.1 3.2 2.5 5.1 1.4 1.9 2.5 3.8 2.5 4.3 0 .4 1.1 2.3 2.4 4 1.3 1.8 3.6 5.4 5.1 8.2 1.5 2.7 3.8 6.4 5.1 8.2 1.3 1.7 2.4 3.6 2.4 4.1 0 .5.7 1.5 1.5 2.2.8.7 1.5 2.1 1.5 3.1 0 1.1.4 1.9.9 1.9 1.3 0 10.6 13.9 14.8 22 1.8 3.6 3.7 7.2 4.2 8 .5.8 2.4 4.6 4.3 8.5 7.6 15.2 13.1 25.2 15.9 28.7 1.6 2 2.9 3.9 2.9 4.3 0 .3 1.4 2.4 3 4.7 1.7 2.2 3 4.6 3 5.3 0 .7.9 2.3 1.9 3.7 1.1 1.4 3.4 5.1 5.2 8.4 1.7 3.2 3.9 7 4.7 8.4.9 1.4 2.7 4.5 4 7 1.3 2.5 3.2 5.4 4.3 6.6 1 1.1 1.9 2.5 1.9 3.1 0 .5 1.7 3.4 3.9 6.4 2.1 3 6 9.9 8.6 15.3 2.7 5.4 5.8 11.1 7 12.5 2.6 3 5.5 8.5 5.5 10.2 0 .6 1.4 3.3 3.2 6 3.2 5 4.5 10.3 2.8 11.4-.6.3-1 1.5-1 2.5 0 1.1-.9 2.4-2 3-1.1.6-2 1.7-2 2.5 0 .9-.6 1.2-1.7.8-1.3-.5-1.5-.2-1 1.1.5 1.2-.2 2.9-2.3 5.2-1.6 1.9-3 4.1-3 4.9 0 .8-.7 1.5-1.5 1.5-1.9 0-1.9-.1.5 5.1 2.7 6.1 7.9 9.4 14.2 9.2 2.7 0 5.4-.6 6.1-1.1 1.9-1.6 7.8-2.3 13.2-1.4 4.9.7 5 .8 8.6 7.7 5.2 9.9 7.7 14.6 9.3 17.5.8 1.4 2.6 5 3.9 8 4 8.7 10.5 22.3 12.2 25 .8 1.4 3.1 5.9 5 10 2 4.1 4 8.2 4.4 9 1.3 2.1 5.7 11.9 7.2 16 .7 1.9 2.4 5.3 3.6 7.5 1.3 2.2 3 5.6 3.9 7.5.9 1.9 2.2 4.2 2.8 5 .7.8 2.5 4.4 3.9 7.9 1.5 3.5 4.2 8.1 6.1 10.2 4.1 4.9 13 22.9 16.2 32.7 1.3 4.1 3 8.2 3.7 9.1.8.9 1.9 3.1 2.6 4.8 2 5 7.3 9.9 12.5 11.7 6.4 2.2 7.7 2 11.4-1.2 3.1-2.6 3.2-2.8 2-6.2-.7-1.9-1.8-3.8-2.5-4.2-.6-.5-2.3-2.8-3.7-5.2-1.4-2.5-3.5-4.7-4.5-5.1-1.2-.4-2.6-2.5-3.6-5.5-.9-2.8-2.2-5.3-2.9-5.7-1.5-.9-4.6-6.6-4.6-8.4 0-.6-1.3-3.1-3-5.6-1.6-2.4-3-4.8-3-5.3 0-1-3.6-7.5-5.5-10-.6-.8-2-3.5-3-6-1.1-2.5-2.5-4.9-3.2-5.3-.7-.4-1.3-1.6-1.3-2.5 0-.9-1.5-4.6-3.3-8.2-8-15.7-18.3-35-21.9-41.3-2.2-3.7-4.2-8.4-4.5-10.3-.3-1.9-1.4-3.9-2.4-4.5-1.1-.5-1.9-1.6-1.9-2.3 0-.8-.7-1.9-1.5-2.6-.8-.7-1.5-1.9-1.5-2.8 0-.9-.9-3.5-2-5.9-1.1-2.4-2.9-6.3-4.1-8.8-1.1-2.5-2.5-4.5-2.9-4.5-.5 0-1.4-1.5-2-3.4-.6-1.9-2-4.6-3-5.9-1.1-1.4-2.4-3.5-2.9-4.8-.8-2.3-.6-2.4 2.3-2.2 2.9.2 4.8.7 13.6 3.8 1.9.7 7.3 2.5 12 4s10.1 3.5 12 4.4c1.9 1 5.5 2.3 8 3.1 2.5.7 6.4 2.1 8.7 3.1 2.4 1.1 5.2 1.9 6.2 1.9 1.1 0 2.2.4 2.6.9.3.5 3 1.7 6.1 2.6 3.1.9 7.9 2.7 10.7 3.9 12.5 5.7 14.7 6.6 15.8 6.6 1.7 0 14.3 4.7 18.9 7 2.2 1.1 4.4 1.8 4.9 1.6.5-.3 2.6.7 4.7 2.2 2.2 1.5 5.7 3.3 7.9 4.1 2.2.7 5.8 2.1 8 3.1 2.2 1.1 5.1 2.4 6.5 2.9 1.4.6 3.2 1.5 4 2 2.3 1.4 12.2 5.8 14.8 6.6 1.2.3 2 1.1 1.7 1.6-.3.5 0 .6.8.3s6.8 2.2 13.3 5.5c7.2 3.8 12.5 5.9 13.6 5.5 1-.3 1.8-.1 1.8.5 0 1 14.5 8.3 31 15.6 4.7 2.1 8.9 4.1 9.5 4.6.5.5 1.7.9 2.7.9 1.8 0 2.5.3 8.8 3.5 1.9 1 4.2 2.2 5 2.6 3.6 1.9 14.7 6.7 17 7.3 2.5.7 7.1 2.7 12.3 5.2 1.6.8 3.5 1.4 4.4 1.4 2.2 0 16.6 5.1 18.3 6.5.8.7 2.6 1.6 4 2 1.4.4 5.3 2.3 8.8 4.1 3.5 1.9 6.9 3.4 7.7 3.4.7 0 1.8.6 2.4 1.3.6.8 3 2 5.3 2.7 2.4.8 5.5 2.2 7 3.2 1.4 1 2.9 1.8 3.2 1.8.4 0 2.4 1.1 4.5 2.4 2.1 1.4 4.1 2.3 4.3 2 .3-.2 1.1.2 1.8 1.1.7.8 1.8 1.5 2.4 1.5.7 0 4 2.7 7.4 6 9.1 9 20.2 12.8 20.2 7 0-1.2 1-2.5 2.5-3.2 1.9-.9 2.4-1.6 1.9-3.2-.9-2.7-8.1-9.9-11.9-11.8-6.5-3.2-21-11.1-21.5-11.7-.3-.4-2.5-1.5-5-2.5s-5.4-2.3-6.5-2.9c-1.1-.6-3.2-1.7-4.7-2.4-8.4-4-16-8.1-17.2-9.3-.5-.5-1.9-1-3-1s-2.7-.6-3.5-1.4c-2-1.6-17.1-7.7-26.6-10.7-8.3-2.6-22.2-8.4-35.9-15.1-5.5-2.6-10.3-4.8-10.8-4.8-.4 0-3.2-1.2-6.1-2.6-2.8-1.4-7.6-3.4-10.6-4.4-3-1.1-6.2-2.7-7.1-3.5-1-.9-4.8-2.7-8.6-4.1-3.7-1.3-7.5-3.1-8.4-3.9-.9-.8-2.3-1.5-3.2-1.5-.8 0-4.2-1.3-7.6-3-3.3-1.6-7.2-3.2-8.6-3.6-1.4-.3-3-1.2-3.7-2-.6-.8-1.7-1.4-2.4-1.4-.6 0-7-2.9-14-6.5-7.1-3.6-13.3-6.5-13.9-6.5-.6 0-3.6-1.2-6.6-2.6-3-1.5-7.3-3.4-9.5-4.4-2.2-.9-6.5-2.9-9.5-4.3-3-1.3-9.5-4.2-14.5-6.2-4.9-2.1-10.9-4.6-13.2-5.6-2.3-1.1-5.2-1.9-6.4-1.9-1.2 0-3-.6-3.8-1.3-.9-.8-5.4-2.6-10.1-4.1-4.7-1.5-9.4-3.1-10.5-3.5-1.1-.5-3.6-1.6-5.5-2.4-1.9-.8-6.2-2.3-9.5-3.2-3.3-.9-7.3-2.3-9-3-10.9-4.5-14.6-5.9-19-7-2.7-.7-8.4-2.3-12.5-3.6-4.1-1.3-8.2-2.4-9-2.5-.8-.1-4.4-1.3-7.9-2.6-4.6-1.7-6.7-3.1-7.3-4.8-.5-1.3-1.5-2.8-2.3-3.4-.7-.6-2.4-3.1-3.6-5.4-1.7-3.4-1.9-4.6-.9-5.2.7-.4 1-1.2.7-1.7-.3-.5.9-2.7 2.8-4.9 1.9-2.1 4.2-5.4 5-7.2 1.1-2.2 2.3-3.2 3.9-3.2 1.5 0 2.7-.9 3.4-2.5.6-1.4 1.6-2.5 2.2-2.5.5 0 1-.7 1-1.5 0-.9.8-1.9 1.8-2.2.9-.4 4.3-3.3 7.5-6.5 3.1-3.2 6.4-5.8 7.2-5.8.8 0 1.5-.8 1.5-1.8s1.1-2.4 2.4-3.1c1.3-.7 2.9-2.4 3.6-3.7 1.3-2.3 12.1-11.4 13.6-11.4.4 0 1.4-.7 2.3-1.5 4.3-4.2 8.6-7.5 9.7-7.5.7 0 1.7-.6 2.1-1.4 1-1.7 11.3-6.6 14-6.6 1.1 0 3.1-.8 4.4-1.8 1.3-1 4.1-2.6 6.2-3.6 2-.9 3.7-2.3 3.7-3.1 0-.9.6-1.2 1.5-.9.8.4 1.5.2 1.5-.4 0-.5 1.2-1.3 2.6-1.6 1.5-.4 3.4-1.5 4.3-2.5.9-1 3.9-2.4 6.6-3.1 2.8-.6 5.9-1.5 7-2 8.9-3.4 17.8-4.9 19-3 .7 1.2 6.5 1.3 8.3.2.9-.6.7-1.9-1.1-5.3-3.8-7.4-6.1-10.9-7.4-10.9-.7 0-1.6-.6-2-1.4-1.4-2.5-6.6-4.6-11.5-4.6-2.7 0-4.8.4-4.8 1 0 .5-.6 1-1.2 1-1.7 0-15.2 4.3-15.8 5-.3.3-2.2 1.4-4.2 2.3-2 1-4 2.2-4.3 2.7-.4.6-1.1.7-1.7.4-.6-.4-1.3-.3-1.7.2-1 1.5-8.6 6.4-9.8 6.4-.6 0-2.4 1-4 2.2-3.1 2.5-5.4 3.9-12.8 7.8-2.7 1.4-6.9 3.8-9.2 5.3-2.4 1.5-4.7 2.7-5.2 2.7s-1.1.7-1.5 1.5c-.3.8-1.2 1.5-2.1 1.5-.8 0-1.5.4-1.5 1 0 1.3-3.8 4.8-9 8.2-2.5 1.6-6.1 4.8-8 7.2-1.9 2.4-4.6 5.1-6 5.9-4.7 3-9.2 7.6-8.5 8.7.9 1.4-2.5 4.1-4.3 3.5-.8-.3-1.6.4-1.9 1.5-.3 1.1-1.2 2-1.9 2-.8 0-1.4.6-1.4 1.2 0 .7-1.8 3.1-4 5.3-2.2 2.2-6.2 6.2-8.9 9l-5 5-3.8-4c-4-4.2-14.3-23.2-14.3-26.4 0-1-.7-2.4-1.6-3.2-.8-.7-2.9-4.1-4.5-7.6s-3.6-6.6-4.4-7c-.8-.3-1.5-1.1-1.5-1.7 0-.7-1.2-2.3-2.6-3.7-1.4-1.3-2.3-3.1-2.1-4.1.3-.9-.4-2.5-1.4-3.4-1-.9-1.9-2.5-1.9-3.4 0-.9-.9-2.5-2-3.5s-2-3.1-2-4.6c0-2-1.1-3.7-4-6.2-2.2-1.9-4-3.7-4-4.1 0-.4-1.1-2.2-2.4-3.9-1.3-1.8-3.1-4.8-4-6.7-.9-1.9-3.2-5.5-5.1-8-1.9-2.5-4.7-6.8-6.1-9.5-1.4-2.8-3.8-7.3-5.5-10-1.6-2.8-2.7-5.9-2.5-6.9.7-2.6-2-8.6-3.8-8.6-.8 0-2.1-1.2-2.9-2.8-3.3-6.4-6.5-12.1-8-14.3-1-1.3-1.7-3.1-1.7-4 0-.9-1.4-4.7-3.1-8.4-1.6-3.7-2.8-7.4-2.5-8.2.3-.8-.1-2.8-.9-4.4-.9-1.6-1.3-3.4-1-3.9.3-.6-.2-1-1.2-1-1.2 0-2.4-1.5-3.7-4.8-1-2.6-3.4-7.9-5.2-11.7-4.1-8.6-5.4-14.1-4.1-17.8 1-3.1-1.2-7.7-3.8-7.7-1.6 0-7.5-7.5-7.5-9.5 0-.7-1.2-2.1-2.7-3.1-1.6-.9-5.7-4.4-9.3-7.6-10.3-9.2-15.2-11-24.7-9.1zM2785.8 616.7c-1.6 1.8-1.6 11.3-.5 77.4l.3 18.5-3.5 1.3c-2 .7-6 1.6-8.9 2.1-6.5 1-8.2 2.3-8.2 6.4 0 6.8 11.1 12.1 16.4 8.1 1.1-.8 2.8-1.5 3.8-1.5 1.6 0 1.8 1 1.9 7.2.3 10.6.6 20.9 1.2 32.5l.5 10.2-3.6 1.2c-8.6 2.7-10.4 6.6-5.7 12.3 1.9 2.3 3.3 3 6.7 3.2 2.4.1 4.2.6 4.2 1.1-.2.7.3 5 4 38.8.8 7.1 1.7 14.3 2 16 .3 1.6 1.3 8.4 2.1 15 1.8 13.7 4 22.3 7.2 28 1.2 2.2 3.2 5.7 4.3 7.8 2.6 4.7 9.9 10.1 17 12.4 11.3 3.7 36 2 50.2-3.4 6.5-2.5 18.5-6.3 19.9-6.3.6 0 7.1-2.9 14.4-6.5 7.4-3.6 14-6.5 14.7-6.5 3.7 0 4.6-8.3 1.2-11.1-.8-.7-2.4-3.2-3.5-5.6-2.3-5.1-5.2-8.3-7.5-8.3-1.4 0-1.6.9-1.2 6.5.3 3.6.2 6.2-.3 5.9-.5-.3-.9-.1-.9.5 0 .5-2.8 2.4-6.2 4.1-3.5 1.8-6.8 3.6-7.4 4.1-1.3 1-15.4 5.9-17.2 5.9-.8 0-4.8 1.4-9 3.1-13.1 5.2-34.9 7.5-44.6 4.7-4.2-1.3-14.6-10.8-14.6-13.4 0-.7-.9-3.1-2-5.2-1.1-2.2-2.2-6.1-2.4-8.8-.9-10.8-1.8-18.2-3-25.4-.8-4.1-1.4-8.4-1.5-9.5-.2-4.9-1.9-21.3-2.4-24-.6-3.1-1.8-15.6-2.1-21-.1-2.9 0-3 4.4-2.9 2.5.1 5.7.5 7.3.9 5.7 1.5 7.5-4.2 3.7-12-2.4-5-5.3-6.5-12.4-6.5h-5.4l-.1-10.1c0-5.5-.3-10.4-.5-10.7-.2-.4-.7-6.3-1-13.2-.5-12.2-.4-12.5 1.8-14.2 1.3-.9 4.4-1.9 6.9-2.2 2.5-.3 5.8-1.1 7.3-1.7 3.2-1.1 3.9-1.2 21.4-2.9 6.9-.7 16.2-1 20.8-.7 7.9.5 8.4.4 9.2-1.7.4-1.2 1.5-2.8 2.4-3.5 2.1-1.7 2-4.2-.1-8.5-1.6-3.2-2.2-3.6-5.9-3.6-2.2 0-8.5.7-14 1.5-5.4.8-12.5 1.5-15.7 1.5-5.1 0-22 2.7-30.3 4.9-1.8.5-3.7.5-4.3.2-1.5-.9-1.7-50.9-.2-52.4.6-.6.7-1.6.1-2.7-.5-.9-.6-4.5-.4-8.1 1.6-20.6 1.6-21.9-.4-25.9-1-2.2-2.2-3.7-2.6-3.3-.3.3-.6.1-.6-.5 0-1.8-5.5-1.4-7.2.5zM2939.3 623.6c-1.4 2.2-1.5 3-.4 5.8.7 1.7 1.7 5.2 2.1 7.7.8 4.4 6.2 24.7 8 29.9 1 3 3.5 19.9 3.3 22-.2.8.4 6.9 1.2 13.5.8 6.6 1.7 15.4 1.9 19.5.3 4.1 1 12.9 1.5 19.6.6 6.6 1.5 19.9 2.2 29.5 2.1 33.4 2.4 36.3 4.7 40.1 1.4 2.5 2.2 2.8 6.7 2.8 6.2-.1 20.1-3.1 24.6-5.5 4.5-2.2 13.4-5.2 18.4-6 2.2-.4 5.4-1.1 7-1.5 6-1.7 9.9-1.9 13.4-.4 4.1 1.7 9.8 2.1 11.1.8 1.6-1.7 1.4-4.9-.7-9.6-3.1-6.8-5.7-8.2-14.5-7.4-4 .4-9.1 1.2-11.3 1.7-2.2.6-6.7 1.6-10 2.4-6.8 1.4-15.7 4.4-16.5 5.4-1.2 1.7-8 4-13.7 4.6l-6.1.7-.7-7.8c-.4-4.4-.9-8.2-1.1-8.6-.2-.3-.6-8.8-.9-18.9-.3-10.1-1.2-24.2-1.9-31.3-.7-7.2-1.4-16.2-1.5-19.9-.1-3.8-.6-8-1.2-9.3-.5-1.4-.9-4.4-.9-6.7 0-5.4-3.9-34.7-4.8-36.1-.3-.6-1-4-1.4-7.6-1.8-15.2-3.5-22.9-5.2-25-.8-.8-1.7-2.5-2-3.6-1.2-4.1-8.8-4.6-11.3-.8zM2515.6 627.5c-1.5 1.1-1.7 2.1-1.1 4.7.4 1.8.8 6.3 1 9.9.1 3.6.7 9.4 1.4 13 .6 3.5 1.6 10.7 2.1 15.9.6 5.2 1.2 11.3 1.5 13.5.3 2.2 1 8.3 1.6 13.5.6 5.2 1.3 9.9 1.6 10.3.6.9 6.8 30.9 8.3 39.7 1.1 6.7 3.9 19.1 7.4 32.5 1.4 5.5 2.6 10.7 2.6 11.6 0 1.7-3.4 2.9-13.5 4.9-2.7.6-5.4 1.2-6 1.4-.5.1-3 .8-5.5 1.5s-5.1 1.8-5.9 2.4c-.7.6-1.8 1.2-2.5 1.3-.6.1-3.1 1.2-5.6 2.5-3.3 1.8-4.6 3.1-4.8 5-.4 3.7 1.3 7.5 4.3 9.5 2.5 1.6 2.8 1.6 6.8-.6 12.6-7 15.6-8.3 20.1-8.7 2.7-.2 5.8-.8 6.7-1.4 1-.5 3.6-.9 5.8-.9 3.6 0 4.1.3 4.7 2.7.3 1.6 1.2 4.4 2 6.3.7 1.9 1.8 5.3 2.3 7.5.5 2.2 1.7 6.5 2.6 9.5.9 3 2 7.5 2.5 10 .9 5 2.1 9.7 7.4 27.9 2 6.9 3.6 13 3.6 13.7 0 1.7 9.6 20.9 11.7 23.4 1.7 2 6.2 2.7 7.7 1.2.4-.4 1.1-.7 1.4-.7 1.7-.1 6.1-3.8 6.7-5.8l.9-2.7c.2-.3.6-3.6 1-7.3 1-8-.1-10.2-3.4-7.2-1.1 1-2 2.3-2 2.8 0 1.5-5 5.8-6 5.2-1.2-.7-5-9.3-5-11.2 0-.8-.6-2.7-1.4-4.1-2.7-5.3-6.6-16.8-6.6-19.8 0-1.1-.6-2.8-1.4-3.9-.7-1.1-1.6-3.6-1.8-5.5-.6-4.3-3.4-15.5-5.9-23.6-1.1-3.3-1.9-7.2-1.9-8.5 0-1.4-.5-3-1.2-3.7-1.6-1.6-2.7-10-1.4-11.1 1.3-1.1 15.6-5 20.6-5.7 1.9-.2 7.8-1.3 13-2.4 5.2-1.1 10.9-2.2 12.5-2.4 1.7-.2 7-1.1 11.9-2 4.9-.9 13.2-2 18.3-2.4 11.2-.9 11.1-1 14.4 10.3 2.5 8.6 6.7 21 8.4 25 4.8 11.4 6.3 15.4 6.8 18.2.6 3.1.6 3.1-4.5 3.8-9 1.3-11.2 6-4.8 10.5 11.2 8 22.8 4.5 22.1-6.8-.3-6.1-4.8-20.6-7.8-25.4-1.3-2.1-2.3-4.6-2.3-5.6 0-.9-.6-2.6-1.3-3.7-.7-1.1-1.8-3.8-2.5-6-.6-2.2-2.1-7.4-3.2-11.5-1.2-4.1-2.6-8-3.1-8.6-.6-.8.1-1.6 2.2-2.4 3.8-1.6 26.9-2.1 35.6-.8 5.1.8 6.5.7 8.7-.7 2.1-1.4 2.6-2.5 2.6-6 0-7.7-8.1-13.4-14.6-10.3-2.2 1-7.5 1.4-20.9 1.3l-18-.1-2.3-7.4c-1.3-4.1-3.8-12.2-5.7-18-1.8-5.8-3.6-13-4-16-.4-3-1.4-8.2-2.2-11.5-.8-3.3-2.3-10.7-3.4-16.5-3.7-19.4-5.3-25.1-7.6-27.6-4.9-5.3-11.1-1.2-9.8 6.6.4 2.2.8 5 1 6.3.1 1.2.7 3.4 1.3 4.9.8 1.8.8 2.9.1 3.4-.7.4-.5 1.3.3 2.7 1.9 3 4.9 14.4 8.9 33.1 1.9 8.7 4.4 18 5.9 22.1 2.6 6.7 4.9 14.5 5.2 17.5l.3 3.5-13.3 1.7c-7.3.9-14.8 2.1-16.5 2.7-1.8.5-5.7 1.3-8.7 1.6-3 .4-9.2 1.5-13.7 2.6-4.6 1-11.6 2.4-15.5 3-4 .6-8.6 1.7-10.3 2.4-1.6.7-4.4 1.6-6.2 1.9-3 .5-3.2.4-3.8-3.7-.4-2.3-1.6-7.4-2.7-11.2-2.5-8.9-4-15.5-4.2-18 0-1.1-.4-2.5-.8-3-.3-.6-.9-4.2-1.3-8-.4-3.9-1.2-7.8-1.7-8.9-.6-1-1.1-2.8-1.3-4-.5-3.5-3.6-18-4.1-18.8-.9-1.4-3.9-24.8-7-53.8-.2-2.5-.9-8.3-1.4-13-.6-4.7-1-10.4-1-12.8 0-3.7-.4-4.5-3.2-6.2-3.9-2.3-5.6-2.4-8.2-.5zM2180.3 638.2c-1.1 1.3-2.8 5.7-3.8 9.8-.9 4.1-2.1 8.5-2.6 9.8-.5 1.3-.9 3.2-.9 4.3 0 1.1-.4 1.8-.9 1.5-.7-.5-6.6-1.5-24.4-4.3-3-.4-4.1-.2-5.2 1.3-2 2.7-1.8 6.7.5 9.1 5.2 5.6 8.6 7.3 17.6 8.6l8.9 1.3-.1 3.4c0 1.9-.6 9.1-1.3 16-.6 6.9-1.3 17.9-1.5 24.5l-.3 12-5.3.8c-2.8.4-6.1 1.4-7.3 2.2-1.2.8-4.3 1.5-6.9 1.5-5.3 0-8.8 2.4-8.8 6 0 7.6 8.1 13.8 16.2 12.5 2.4-.4 6.2-2 8.5-3.5 2.3-1.6 4.4-2.6 4.7-2.2.3.3.6 2 .6 3.8 0 1.8.7 6.1 1.5 9.6s1.9 10.8 2.4 16.3c3.1 30.9 5.2 39.6 11.8 47.3 4.7 5.4 12.5 10.2 16.8 10.2 1.2 0 2.5.4 3 .8 1.9 1.6 17.3 3.5 22.2 2.7 2.7-.5 6.2-1 7.8-1.1 3.5-.3 16.8-3.7 20.8-5.3 1.6-.6 4.8-1.1 7.1-1.1s4.6-.3 5-.7c.4-.4 2.9-.8 5.6-.8 2.8 0 4.9-.2 4.8-.5-.4-1.3 2.4-5 3.7-5 2.5 0 1.7-3.9-1.7-8.8-5.4-7.7-7.3-9.4-9.9-9-2 .2-2.3.8-2.1 3.1.2 2.4-.3 3-4 4.7-2.4 1-6.1 2-8.2 2.2-2 .1-4 .6-4.2 1-.3.4-1.8.8-3.3.8-1.5 0-3.1.4-3.6.8-.6.5-4.1 1.7-8 2.8-14.8 3.9-36.7 1.2-41.7-5.1-3-3.8-5.7-9.3-5.6-11.3.1-.9-.8-5.8-2-10.7-1.8-7.6-3.5-21.8-3.4-29 0-1.1-.5-3.4-1-5.2-1.5-5.2-1.8-13.1-.5-14.1.7-.5 5.1-1.5 10-2.2 12.7-1.9 51.8-.1 60.1 2.9 5.9 2.1 8.6 1.9 8.6-.5 0-.9 1.1-1.4 3-1.4s3.3-.7 4-2c1.4-2.6-.6-5.6-6.5-10.2l-4.4-3.5-21.8-.2c-12-.1-25.2-.4-29.3-.6-4.1-.2-11.7-.4-16.7-.5l-9.3-.2-.2-4.7c-.2-5-.2-5.3.7-15.6.3-3.9.7-9.3.9-12 .2-2.8.6-8.1.9-11.8.3-3.8.9-7.2 1.2-7.5 1.2-1.2 22.5-.2 29.2 1.4 3.6.8 8.8 1.7 11.7 1.9 14.8 1.3 18.3 1.7 19.2 2.3.6.4 1.5 2.6 2.2 4.9l1.2 4.2 4.3-.6c2.3-.3 7.5-.6 11.5-.6 6.5-.1 7.3-.3 6.9-1.9-.3-1.1.4-2.5 2-3.6 3.4-2.5 2.6-5.7-2.3-9.6-3-2.3-5.5-3.2-12.8-4.3-5-.7-11.1-2-13.6-2.7-2.5-.8-8.5-1.8-13.5-2.1-9-.6-16.8-1.8-23.7-3.6-2-.5-6.2-1.1-9.3-1.4-3.2-.2-5.9-.6-6.1-.8-.3-.2.4-2.5 1.5-5 1.9-4.4 2.2-4.6 5.2-4 2.5.5 3.5.2 4.6-1.2 2.4-3.4 1.6-7.1-2.4-11.1-7.9-7.7-14.1-9.5-18-5.2zM1441.6 638.5c-1.8 1.3-1.8 1.8-.6 5.7.8 2.4 1.9 5 2.6 5.8.7.8 2.5 5.1 3.9 9.5 2.7 8.1 9.5 22.8 13.9 30 4.7 7.7 6.9 12 8.3 16.8.8 2.6 2.5 6.9 3.9 9.4 1.3 2.5 2.8 7.3 3.4 10.6.5 3.2 1.3 6.4 1.9 7 .9 1.2 5.7 13.9 12.6 33.5 2 5.7 3.4 11.1 3.1 11.9-.4.9.2 2.3 1.4 3.3 1.5 1.3 1.9 2.5 1.4 4.4-.4 1.9-.2 2.8 1 3.2.9.3 1.6 1.2 1.6 2s.4 2.2.9 3.2c1.6 2.9 12.1 36.6 12.1 38.6 0 1.1 1 5.1 2.1 9 2.9 9.4 8.5 27.5 11 35.6 3.5 11 10 28.4 11 29.4.5.6.9 1.7.9 2.6 0 2 3.4 5.2 7.9 7.5 3.8 1.9 12.2 1.4 17.6-1 4.6-2.1 29.1-4.3 37.7-3.3 4 .4 13.7 1 21.5 1.3 10.4.3 15.1.9 17.4 2 3.4 1.8 6.4 1.3 5.5-1-.3-.8-.1-1.5.4-1.5s1.4-1 2.1-2.1c1.6-3-.3-8.7-4-12.3-2.6-2.5-3.4-2.8-7.3-2.1-6.2 1-13.3 1-41.6 0-22.7-.7-26-.6-33.1 1-10 2.3-12.8 1.6-14.7-3.3-.8-2-2.1-5.1-2.9-6.7-.8-1.7-1.8-4.6-2.3-6.5-1.2-4.4-6.1-18.8-7.4-21.5-.5-1.1-1.5-4.3-2.2-7-.8-2.8-1.9-6.4-2.4-8-1.6-4.8-4.2-16.8-4.2-19.3 0-1.3-.6-3.5-1.4-5-.8-1.5-3.5-8.8-5.9-16.2-2.5-7.4-5.5-15.9-6.6-18.8-1.2-2.9-2.6-7.4-3.1-10-1-4.7-2.1-7.7-6.5-18.2-3.1-7.3-8.1-21.4-9.6-27-.6-2.5-1.8-5.9-2.5-7.7-.8-1.7-1.4-4-1.4-5.1 0-1.2-.4-2.3-.9-2.6-.5-.3-1.2-2-1.5-3.8-.3-1.8-2.2-6.5-4.1-10.3-1.9-3.9-3.5-7.6-3.5-8.3 0-.7-1.6-3.8-3.5-6.8s-3.5-5.9-3.5-6.4c0-.6-.4-1-1-1-.5 0-1-1-1-2.1 0-2-2.8-8.9-5.1-12.9-.5-.8-1.2-2.2-1.5-3-1.5-3.9-6.8-13.6-7.9-14.5-.7-.6-1.5-2.4-1.9-4.2-.6-2.6-1.3-3.3-5.1-4.2-5.2-1.3-4.6-1.4-6.9.4zM3154.5 651.5c-6.6.7-14.7 1.6-18 1.9-3.3.3-9.8.9-14.5 1.5-4.7.5-9.2 1-10 1-3.2.2-23.6 3.8-25 4.4-.8.3-3.3.8-5.5 1-2.2.3-6.9 1-10.5 1.5-3.6.6-9 1.2-12 1.3-3 .1-6.6.6-8 .9-1.4.4-5 1.3-8 2-11.4 2.5-27.6 7.3-29.5 8.6-1.1.8-2.9 1.4-4 1.4-2.8.1-6.3 3-7 6.2-.5 2.1 0 3.4 2.8 6.4l3.4 3.8 6.9-2.3c3.8-1.3 7.6-2.9 8.4-3.6.8-.6 5.1-2 9.5-2.9 4.4-.9 9.8-2.1 12-2.6 9.6-2.2 14.4-2.9 20.5-3.4 8.8-.7 19.2-2.2 27-4 3.6-.8 9.4-1.7 13-2.1 8.2-.8 12.7-1.3 21.5-2.5 7.1-1 22.6-2.8 31.2-3.6 9.5-1 47-1.2 57.1-.3 6.4.5 11.1 1.4 12.5 2.4 5.9 4.1 17.6-.5 17.7-7 0-3.9-2.9-6.4-9.8-8.5-6-1.7-10.5-2-38.3-2.5-23-.3-34.6-.1-43.4 1zM2426 683.4c-1.9.7-5.1 1.9-6.9 2.6-1.9.8-4.7 2.4-6.2 3.8-1.5 1.3-4 3.1-5.5 3.8-4.9 2.6-20.4 15.9-20.4 17.6 0 .6-.9 2.2-2.1 3.6-5.7 7.5-14.8 25.9-16.5 33.5-.3 1.7-1.5 5.2-2.6 7.6-4.9 11.5-7 40.4-3.8 51.5 2.4 8 4.2 11.5 8.6 16 10.4 10.7 23.2 16.9 38.5 18.6 5.2.6 10.8 1.5 12.5 2 1.7.6 7.3 1 12.5.9 13.2-.1 30.8.6 31.6 1.4 1.1 1.2 4.2.8 5-.7.4-.8 1.7-1.6 2.8-1.8 1.7-.3 2-1.1 1.8-5.2-.2-5.8-2.7-9-7-8.7-15.1.7-32.8.6-47.5-.5-17-1.2-17.9-1.4-25.2-4.8-4.1-2-7.9-3.6-8.4-3.6s-3.6-2.6-7-5.8c-7.3-6.9-7.7-8.5-6.9-29 .5-13.3 1.5-18.3 5.3-26.9.8-1.7 1.4-3.8 1.4-4.7 0-2.4 4.5-12 7.9-17 1.7-2.4 3.6-5.7 4.2-7.3 2.7-7.2 18.8-23.5 25.6-26 1-.3 3.1-1.5 4.7-2.7 1.7-1.1 4.1-2.1 5.5-2.3 1.4-.2 4.1-.6 5.8-.9 1.8-.4 4.4-.4 5.7 0 2.1.5 2.4 1 1.9 4.4-.9 7 4 8 9.7 1.9 2.4-2.5 3-4.1 3-7.5 0-3.6-.5-4.9-3.2-7.3-6.6-6.3-18-9.2-24.8-6.5zM3092.9 697.1c-1.3 2.5-.7 11.8.9 12.8 1.2.8 2.8 6.8 3.7 14.3.3 3.2 1.1 5.8 1.6 5.8s.9 1.5.9 3.3c0 1.8.6 5.6 1.4 8.3.8 2.7 1.7 7.6 2 10.8.4 3.3 1.1 6.4 1.5 7 1.1 1.3 2.7 9.1 4.5 21.6.8 5.2 2.3 14 3.5 19.5 1.1 5.5 2.3 11.8 2.5 14 .2 2.2.6 4.7 1 5.5.3.8 1 3.3 1.5 5.5 2.2 9.4 6.8 23.2 8.5 25.7 2.1 3.1 4.2 3.5 7.2 1.3 1.2-.8 2.4-1.1 2.8-.8 1.2 1.3.6-8.3-.8-10.2-.7-1.1-1.7-5-2-8.7-.4-3.7-1.1-7-1.5-7.3-.4-.2-.8-2.5-.9-4.9 0-4-1.5-9.5-4.2-16.1-.5-1.1-1.2-4-1.6-6.5-.3-2.5-1.1-5.1-1.7-5.8-1.1-1.3-2.3-7.3-3.4-16.2-.3-2.5-.9-4.9-1.4-5.4-.5-.6-.9-2-.9-3.3 0-1.3-.9-5.6-2-9.6-1-3.9-2.6-11.5-3.5-16.7-.9-5.2-2.2-11.3-2.9-13.5-.8-2.2-1.9-6.7-2.6-10-1.8-9.4-3-13.7-5.2-18.3-1.6-3.5-2.4-4.2-4.8-4.2-2 0-3.3.7-4.1 2.1zM1188.6 712.6c-2.1 2.1-2 7 .2 9.9 1 1.2 2.8 5.5 4.1 9.6 1.3 4.1 2.9 8.7 3.6 10.4 2.5 5.9 5.3 13.2 9 23 2 5.5 4.5 11.9 5.6 14.3 1 2.3 1.9 4.9 1.9 5.8 0 .8.5 2.5 1.2 3.7 1.4 2.5 1.4 2.7 2.7 8.7.5 2.5 1.7 6.6 2.6 9 2.3 6.1 4.9 12.9 6.3 16.3.7 1.6 1.2 3.3 1.2 3.8s.3.9.8.9c.7 0 3.2 7 3.2 9.1 0 .6.6 2.5 1.4 4.2 1.7 3.8 3.5 9.2 6.6 20.2 1.3 4.4 4.2 13.8 6.5 21 6 18.2 9.5 31.5 9.3 35.6-.2 4.7 2.5 9.4 7.4 12.9 4.2 3 10 4 11.3 2 .4-.6 2.3-2.1 4.3-3.4 2.1-1.3 6.1-4.6 9-7.4 5.5-5.1 9.4-7.3 14.1-7.8 13.6-1.5 19.4-1.8 20.4-1.2 1.4.7 22.9 2.8 29 2.7 2.1 0 4.3.3 4.9.7.6.4 2.7.8 4.7.9 2 .1 6 .9 9 1.8 5.1 1.5 5.5 1.5 6.8-.1 3.2-4 3.3-5.9.5-11.6-1.4-3.1-3.3-5.9-4.2-6.2-.8-.4-6.2-.8-12-1-19-.6-28.3-1.2-41-2.9-10.1-1.4-13.6-1.4-18.5-.5-7.7 1.5-20.4 5.4-25.7 8-2.3 1.1-4.7 2-5.2 2-1.8 0-3.3-3.2-4.6-9.6-.6-3.2-1.9-6.9-2.7-8.2-.8-1.3-1.2-3-.9-3.8.3-.7-.6-3.6-1.9-6.2-1.3-2.7-2.6-6.6-2.9-8.6-.6-4.4-3.2-13.7-5.2-18.4-.8-1.8-1.4-4.2-1.4-5.3 0-1.2-.7-3.3-1.5-4.7-.8-1.5-2.8-6.9-4.5-12.1-1.7-5.2-3.6-10.2-4.4-11-.7-.9-1.6-3.1-1.9-4.8-.4-1.8-1.6-5.3-2.7-7.8s-2.3-6-2.7-7.8c-.3-1.7-.9-3.7-1.3-4.2-.4-.6-1-2.7-1.4-4.8-.4-2.1-1.6-5.3-2.7-7-1-1.8-1.9-4.6-1.9-6.3 0-1.7-.7-3.7-1.5-4.4-.9-.7-1.4-1.9-1.1-2.7.3-.7-.3-2.8-1.3-4.7-3.2-5.6-8-23.1-8.3-29.9-.2-6.1-3-11.8-7.7-15.9-2.3-1.9-4.1-4-4.1-4.7 0-2.9-9.8-4.1-12.4-1.5zM779 718.6c0 1.5 1.1 5.9 2.4 9.8 1.3 3.9 3.2 11.4 4.1 16.6 2.1 11.8 3.2 16.2 5.6 22.4 1 2.7 1.9 6.1 1.9 7.7 0 1.5.4 3.8.9 5.1.5 1.3 1.1 5.9 1.5 10.3.3 4.4 1.1 10.9 1.7 14.5.5 3.6 1.3 8.5 1.6 11 .3 2.5 1 5 1.5 5.7 1.1 1.3 1.9 7.1 2.3 16.3.1 3.6 1.3 12.8 2.5 20.5 2.3 13.6 3.1 23.8 2.3 26.2-.2.6-1.3 1.3-2.4 1.6-1.4.4-1.9 1.4-1.9 4 0 2.8.7 4.2 3.4 6.4 3.5 3 4.5 5.6 5.3 14.2.2 3 1 6.4 1.6 7.5 1.4 2.4 1.6 4.2 2.1 14.6.7 17.1 4.7 32.1 9.5 36.2 3.9 3.3 12.1 5.8 12.1 3.8 0-.6.6-1 1.4-1 3.1 0 2.6-3.9-1.4-12.3-3.1-6.4-4.2-10.2-4.6-14.9-.2-3.5-1.1-8.3-1.9-10.8-1.7-5.2-4.1-17.1-5.1-24.8-.4-2.9-1.1-5.5-1.5-5.8-1.9-1.1-.7-2.4 3.4-3.5 2.3-.7 4.6-1.6 5.2-2.1.5-.4 2-.8 3.5-.8 1.4 0 3.9-.9 5.6-1.9 1.8-1.1 4.7-2.2 6.5-2.5 1.9-.3 5.6-1.2 8.3-2 2.7-.8 9.5-1.8 15-2.2 12.5-.8 11.3-.8 16.2 0 3.9.7 4.2.6 4.9-2.1 1-3.4.7-7.1-.6-9.8-1.2-2.4-10.4-6.8-12.8-6.1-.9.3-6.1 1-11.7 1.5-5.5.6-16.3 2.7-24 4.7-15.8 4.2-21.1 5.1-22.6 3.6-.5-.5-1.1-5.4-1.3-10.9-.3-9.5-.7-13.3-2-21.8-.3-2.2-.7-8.1-.9-13-.1-5-.7-10-1.4-11.1-2.1-3.8-4.8-20.1-5.7-33.9-.2-2.7-1.3-8.3-2.4-12.5-2.4-8.7-5.2-23.3-4.6-23.8.5-.5 12.5 9.9 12.5 10.8 0 .6 4.4 5.9 13.6 16.3 1.9 2.1 3.4 4.3 3.4 4.9 0 .8 6.7 9.3 10.8 13.7.7.8 2.1 2.6 3 4 .9 1.4 2.2 3 2.9 3.4.7.4 1.3 1.3 1.3 1.8 0 .6 1.4 2.4 3 4.1 1.7 1.6 3.8 4.4 4.7 6.2.9 1.7 2.7 4.2 4.1 5.6 1.3 1.4 3.6 4.1 5.1 6 1.4 1.9 3.1 3.8 3.8 4.3.6.4 3.3 3.6 5.9 7.2 2.6 3.6 5.1 6.5 5.6 6.5.4 0 .8.5.8 1.1 0 1.3 9.6 13 11.6 14.2.8.4 1.4 1.2 1.4 1.8 0 1.7 18.4 25 28.2 35.6 3.5 3.9 6.4 8.2 7.5 11.3 1 2.7 2.3 5 2.9 5 .7 0 1.4.7 1.8 1.5.3.8 1.2 1.5 2 1.5s1.8.9 2.1 2c.4 1.1 1.5 2 2.6 2s2.2.7 2.5 1.5c.4.8 1.2 1.5 2 1.5.7 0 1.7.6 2.1 1.3.4.8 2.2 2.2 3.8 3.3 1.7 1 3.6 2.4 4.3 3.1 2.1 2 5.9 1.5 8.8-1.2 2.7-2.5 2.7-2.5 1-6.3-.9-2-3.3-5.1-5.2-6.7-3.1-2.6-17.8-17.1-29.9-29.6-1.9-1.9-3.5-4-3.5-4.5 0-.6-1-1.6-2.3-2.3-1.3-.7-3.9-3.3-5.8-5.7-1.9-2.5-4.9-6.3-6.6-8.4-1.8-2-3.3-4-3.3-4.4 0-.6-1.2-2-6.4-7.6-1.3-1.4-2.5-3-2.7-3.7-.2-.6-2.3-3.3-4.7-6-2.3-2.6-6.1-7.6-8.5-10.9-2.3-3.4-7.8-10.7-12.2-16.1-4.4-5.5-8.7-11-9.5-12.2-.8-1.3-2.5-3.5-3.8-4.9-5-5.8-5.8-6.8-7.2-9.5-.7-1.5-2.9-3.7-4.7-4.8-1.8-1.1-3.3-2.5-3.3-3.1 0-.9-4-6.4-7.5-10.5-.5-.6-1.9-2.3-3-3.8s-3.1-3.9-4.5-5.4c-1.4-1.5-3.8-4.7-5.5-7.2-3.4-5-5.6-7.7-10.2-12.4-1.8-1.8-3.3-3.7-3.3-4.2 0-1-4.7-6.4-16.1-18.5-7.4-8-7.6-8.1-13.2-8.6-5.7-.4-5.7-.4-5.7 2.4zM1061 723c0 .5-.6 1-1.4 1-1.3 0-3.2 5.4-2.6 7.5.2.5.3 1.7.4 2.6.1.9 1.2 3.2 2.4 5.3 1.2 2 2.2 4.3 2.2 5 0 2.2 5.2 17 6.1 17.7.5.3 1.8 3.6 2.9 7.4 1.1 3.7 2.6 7.5 3.3 8.4 1.4 1.6 4.9 8.1 8.2 15.1 3.4 7.3 9.2 17.7 13.5 24.5 6.7 10.5 7 10.9 7.6 12.3.4.7.4 1.6 0 1.9-.3.4-6.8 1-14.4 1.4-17 .9-45 4.7-50.6 6.9-1.5.5-7.3 1-12.9 1-11.3 0-27.4 1.6-35.4 3.5-5 1.2-5.2 1.2-7.5-1.4-4.1-4.5-7.8-9.9-7.8-11.4 0-.8-.7-1.8-1.5-2.1-.9-.3-2.3-2-3.1-3.8-.8-1.8-2.9-5.4-4.7-7.9-4.4-6.4-7.1-11.2-6.9-12.5.1-.5-1.1-2.3-2.8-3.9-1.6-1.6-3-3.2-3-3.7 0-.4-1.5-2.9-3.3-5.5-1.8-2.7-3.9-6.1-4.7-7.6-.8-1.6-2.2-3.3-3.2-3.8s-1.8-1.6-1.8-2.3c0-.7-2.8-4.2-6.2-7.8-6.6-6.8-7.3-7-16.1-5.9-.4.1-1.1 1.1-1.6 2.3-1 2.7.6 6.8 3.8 10 4.6 4.5 10.1 11.3 10.1 12.4 0 .6.9 1.9 2.1 3 1.2 1 2.8 3.2 3.6 4.8.8 1.6 2.4 3.8 3.4 4.9 1 1.2 1.9 2.5 1.9 3 0 .8 1.1 2.1 8.1 9.7 1.5 1.6 2.4 3.1 2.1 3.4-.2.3.4 1.8 1.4 3.3 1 1.5 2.4 3.9 3.1 5.3 1.7 3.4 3 5.3 9.1 13.4 2.9 3.8 5.1 7.5 4.9 8-.2.6-2.5 1.8-5.2 2.8-7 2.5-8.8 4.6-7.9 9.2.5 2.9 1.7 4.5 5.3 7.2 2.5 1.8 5.1 3.4 5.7 3.4.6 0 2.6.7 4.4 1.7 3.2 1.6 3.5 1.5 7.2-.6l3.8-2.1 1.4 3.2c.7 1.8 3.7 6 6.5 9.3 2.8 3.2 5.1 6.5 5.1 7.1 0 .7.6 1.9 1.3 2.6.7.7 2.9 4.8 5 9 2 4.2 4.1 7.9 4.6 8.2.5.3 2 2.7 3.2 5.4 1.3 2.6 3.8 6.8 5.6 9.3 1.8 2.6 3.3 5 3.3 5.3 0 1.1 8.8 12.4 10.8 13.8 1 .7 2.8 3 4 5 1.3 2 3.2 4 4.2 4.3 1.1.4 2 1.5 2 2.6 0 1 .3 1.8.8 1.7.4 0 1.5.2 2.5.7 2.7 1.2 9-.3 8.3-2.1-.3-.8-.1-1.4.4-1.4 1.9 0 1-4.9-1.5-7.8-1.4-1.7-2.5-3.5-2.5-4.1 0-.6-.4-1.1-.9-1.1-1.2 0-12.1-14-12.1-15.5 0-.6-1.2-2.2-2.6-3.6-1.5-1.3-4.9-5.8-7.7-9.9-2.8-4.1-5.4-7.7-5.9-7.8-.4-.2-.8-1.2-.8-2.3 0-1-.4-1.9-.8-1.9s-2.1-2.5-3.6-5.6c-1.6-3-3.4-5.8-4.2-6.1-.7-.3-1.6-1.4-2-2.5-.6-1.9-3.3-6.4-9.5-15.6-1.6-2.3-2.9-4.9-2.9-5.7 0-2.9 26.4-8 43.3-8.4 3.3 0 6.3-.4 6.9-.7 2.9-1.8 40.4-6.2 55.7-6.5l11.4-.3 2.3 3c1.3 1.6 2.4 3.6 2.4 4.4 0 .8.9 2.6 2 4s2 3.2 2 4c.1.8 1.5 3.7 3.1 6.5 1.6 2.7 3.5 6.1 4.1 7.5.7 1.4 2.3 3.3 3.5 4.3 1.3 1 2.3 2.5 2.3 3.3 0 .8 1.2 3.2 2.6 5.4 1.4 2.1 2.3 4.4 1.9 4.9-.3.6 0 1.1.8 1.1s2.4 2.1 3.7 4.7c1.9 4.3 6 12 10 19.3.8 1.4 1.4 2.9 1.5 3.5 0 .5.7 2.1 1.6 3.5.9 1.4 2 4.2 2.3 6.2.5 2.5 1.6 4.4 3.7 5.9 1.6 1.1 5 5.1 7.4 8.8 2.5 3.7 5.6 7.3 7 7.9 1.4.6 2.5 1.6 2.5 2.2 0 1.6 7.5 4.9 9.9 4.3 2.6-.7 4.5-4.6 4.2-8.3-.3-2.8-1.6-5-5.8-9.7-1.5-1.8-3.7-4.4-4.8-5.9-1.1-1.4-2.8-3.4-3.7-4.2-1-.9-1.8-2.6-1.8-3.8 0-1.2-.7-2.4-1.5-2.8-.8-.3-2.3-2.2-3.3-4.3-.9-2.1-2.5-4.4-3.4-5.1-1-.7-1.8-2-1.8-2.8 0-.8-.9-2.2-2-3.1-1.1-1-2-2.5-2-3.4 0-.9-.7-2.2-1.5-2.9-.8-.6-1.7-2.2-2.1-3.3-.4-1.2-2.2-4.5-4-7.3-1.9-2.8-3.4-5.5-3.4-5.9 0-.9-2.3-4.6-8.2-13.2-1.5-2.3-2.8-4.8-2.8-5.7 0-.8-.7-1.9-1.4-2.3-.8-.5-3.1-4.3-5-8.5-3.4-7.5-3.5-7.8-1.6-8.8 1.1-.6 2-2.1 2-3.3 0-1.3.5-2.8 1.1-3.4 2.7-2.7-4.4-12.7-9.9-13.8-5.5-1.2-9.2-3.8-11.2-8-1.1-2.3-3.8-6.5-5.9-9.4-2.2-2.9-5.1-7.8-6.6-10.9-1.5-3.1-4.2-8.7-6.1-12.5-1.9-3.7-3.4-7.3-3.4-8.1 0-.7-.8-2-1.8-3-1.1-.9-2.5-3.5-3.1-5.9-.7-2.3-1.7-5-2.3-6.1-.5-1-1.6-3.7-2.3-6-.7-2.2-2.8-7.9-4.5-12.6-3.4-8.9-4-12.9-2.6-16.8.6-2 .1-3-3.4-6.3-3.3-3.2-4.8-3.9-8-3.9-2.2 0-4 .4-4 1zM1391.3 764.7c.2 2.1.8 4.9 1.1 6.3.4 1.4 1.1 5 1.6 8 .4 3 2 9.5 3.5 14.5 1.5 4.9 3 10.1 3.3 11.5.3 1.4 1.6 4.5 2.9 6.9 1.2 2.4 2.3 5.2 2.3 6.1 0 1 .7 2.3 1.5 3 .8.7 1.5 1.8 1.5 2.5 0 .6 2.2 5.7 5 11.1 2.7 5.4 5 10.7 5 11.6 0 .9.5 2 1 2.3.6.3 1 1.3 1 2.2 0 .9 1.6 4.8 3.6 8.6s4.6 9.7 5.9 13.1c3.8 9.6 6.7 16.1 13.4 29.8 3.4 7 6 13.2 5.7 13.7-.4.5.4 3.4 1.7 6.3 1.3 2.9 3.2 7.3 4.2 9.7 1.1 2.3 3.4 6.4 5.2 8.9 1.8 2.6 3.3 5.1 3.3 5.7 0 .5 1.7 2.8 3.8 5.1 7 7.6 12.1 9.3 16 5.1 2.9-3 2.8-6.8-.2-10.4-3.4-4.2-7.6-11.1-7.6-12.7 0-.7-1.8-3.3-4-5.7-2.2-2.4-4-5.1-4-6 0-.9-.8-2.7-1.9-4-1-1.3-2.2-3.5-2.6-4.9-.4-1.4-3.4-7.7-6.6-14-3.3-6.4-5.9-12-5.9-12.6 0-.5-.8-2.1-1.7-3.4-1-1.4-1.8-2.9-1.8-3.5 0-1.8-4.3-12.1-7.3-17.6-1.6-3-3.8-8.4-5-12-1.2-3.7-4.9-12-8.2-18.5-3.3-6.5-6-12.4-6-13 0-1.2-4-10.3-6.4-14.4-.7-1.4-1.9-4.8-2.4-7.5-2.5-11.9-4.6-19.4-7.1-24.9-4-9-5.5-10.6-10.3-10.6h-4l.5 3.7z"/>
</svg>
